<?xml version="1.0" encoding="UTF-8"?>
<svg version="1.1" xmlns="http://www.w3.org/2000/svg" width="500" height="500">
<path d="M0 0 C165 0 330 0 500 0 C500 165 500 330 500 500 C335 500 170 500 0 500 C0 335 0 170 0 0 Z " fill="#000000" transform="translate(0,0)"/>
<path d="M0 0 C14.19 0 28.38 0 43 0 C50.24694998 17.19043948 57.43901497 34.40181053 64.52960205 51.65734863 C65.34212655 53.63317091 66.15620984 55.60835289 66.97186279 57.58288574 C68.12631791 60.3789724 69.2748487 63.1774216 70.421875 65.9765625 C70.76922699 66.81492645 71.11657898 67.65329041 71.47445679 68.51705933 C71.79322784 69.29856354 72.1119989 70.08006775 72.44042969 70.88525391 C72.71876648 71.56230377 72.99710327 72.23935364 73.28387451 72.93692017 C74 75 74 75 75 80 C83.91 80 92.82 80 102 80 C102.33 78.35 102.66 76.7 103 75 C103.5515764 73.43428158 104.14565619 71.88307485 104.77490234 70.34692383 C105.14007965 69.44940399 105.50525696 68.55188416 105.88150024 67.62716675 C106.27896454 66.66352203 106.67642883 65.69987732 107.0859375 64.70703125 C107.70594131 63.18953781 107.70594131 63.18953781 108.33847046 61.64138794 C109.67943658 58.36320944 111.02700488 55.08779369 112.375 51.8125 C113.29090973 49.5782964 114.20659978 47.34400273 115.12207031 45.10961914 C121.30929051 30.02702849 127.58952452 14.98920003 134 0 C148.19 0 162.38 0 177 0 C177 26.4 177 52.8 177 80 C187.23 80 197.46 80 208 80 C208 53.6 208 27.2 208 0 C219.22 0 230.44 0 242 0 C242 26.4 242 52.8 242 80 C246.62 80 251.24 80 256 80 C256 86.93 256 93.86 256 101 C251.38 101 246.76 101 242 101 C242 121.46 242 141.92 242 163 C230.45 163 218.9 163 207 163 C207 142.54 207 122.08 207 101 C197.1 101 187.2 101 177 101 C177 121.46 177 141.92 177 163 C165.78 163 154.56 163 143 163 C143 142.54 143 122.08 143 101 C136.73 101 130.46 101 124 101 C123.01 103.97 122.02 106.94 121 110 C120.29930424 111.86738561 119.5814504 113.72851049 118.83935547 115.57983398 C118.44239471 116.57373642 118.04543396 117.56763885 117.63644409 118.59165955 C117.21758942 119.63262283 116.79873474 120.67358612 116.3671875 121.74609375 C115.92988312 122.83841812 115.49257874 123.93074249 115.04202271 125.0561676 C114.12379348 127.34839746 113.20433004 129.64013327 112.28369141 131.93139648 C110.87000702 135.44992707 109.46007359 138.96994261 108.05078125 142.49023438 C107.15646615 144.72144082 106.26194235 146.95256362 105.3671875 149.18359375 C104.94428436 150.23872665 104.52138123 151.29385956 104.08566284 152.38096619 C103.69500641 153.3528035 103.30434998 154.32464081 102.90185547 155.32592773 C102.55782684 156.1825853 102.21379822 157.03924286 101.85934448 157.92185974 C101 160 101 160 100 162 C92.41 162 84.82 162 77 162 C72.36456796 152.14859048 68.40214969 142.07110963 64.4375 131.9375 C63.44488863 129.40867555 62.45146269 126.88017229 61.45791626 124.35171509 C60.82376389 122.73678653 60.19042387 121.12153872 59.55795288 119.50595093 C57.61994063 114.55816233 55.64760111 109.62630296 53.61352539 104.71704102 C53 103 53 103 53 101 C46.4 101 39.8 101 33 101 C33 121.46 33 141.92 33 163 C22.11 163 11.22 163 0 163 C0 142.54 0 122.08 0 101 C-4.62 101 -9.24 101 -14 101 C-14 94.07 -14 87.14 -14 80 C-9.38 80 -4.76 80 0 80 C0 53.6 0 27.2 0 0 Z " fill="#FDFDFD" transform="translate(129,166)"/>
<path d="M0 0 C0.66 0 1.32 0 2 0 C3.5056651 3.62267294 5.00356546 7.24850549 6.5 10.875 C6.92925781 11.90753906 7.35851562 12.94007813 7.80078125 14.00390625 C8.20683594 14.99003906 8.61289063 15.97617188 9.03125 16.9921875 C9.40830078 17.90339355 9.78535156 18.81459961 10.17382812 19.75341797 C11 22 11 22 11 24 C7.37 24 3.74 24 0 24 C0 16.08 0 8.16 0 0 Z " fill="#191919" transform="translate(162,222)"/>
<path d="M0 0 C0.33 0 0.66 0 1 0 C1 7.59 1 15.18 1 23 C-2.3 23 -5.6 23 -9 23 C-2.35 2.35 -2.35 2.35 0 0 Z " fill="#070707" transform="translate(271,223)"/>
<path d="M0 0 C2.97 0 5.94 0 9 0 C8.01 2.64 7.02 5.28 6 8 C5.01 8 4.02 8 3 8 C2.01 5.36 1.02 2.72 0 0 Z " fill="#0B0B0B" transform="translate(213,267)"/>
</svg>
